<svg width="107" height="170" viewBox="0 0 107 170" fill="none" xmlns="http://www.w3.org/2000/svg">
<path d="M63 20H3V167H102V20H87" stroke="#410E0B" stroke-width="6"/>
<path d="M69.0801 85.9128H28.9281C27.8796 85.9128 26.9991 86.7283 27 87.7767C27.0125 102.65 40.6681 109 51.5393 109C68.1221 108.321 74.0531 95.0766 74.0531 88.2685L75 57C75 51.6091 75.8477 35.8115 77.4791 27.9587C78.7288 21.9435 81.3946 16.9647 83.3523 13.8234C87.9989 6.36809 98.4532 5.97852 103.26 6.73038C103.368 6.74734 103.475 6.7574 103.585 6.75185C106.61 6.59862 108.169 2.27753 103.419 0.630806C99.935 -0.577116 94.7071 0.253857 93.1409 0.630806C89.1676 1.58711 85.5083 4.19204 83.3523 6.75603C80.3577 10.3173 75.9576 15.1168 73.5058 27.7506C72.6635 32.0913 70.9224 65.3122 71.0895 83.8825C71.0995 85.0012 70.1988 85.9128 69.0801 85.9128Z" fill="#410E0B"/>
<path d="M54.4276 63.0341C63.8123 72.06 55.1738 79.9025 55.1738 79.9025C55.1738 79.9025 58.8687 72.0509 49.0802 66.7664C39.2916 61.4819 45.5912 52.1234 49.5408 48.4412C51.948 46.197 45.0429 54.0082 54.4276 63.0341Z" fill="#846867"/>
<path d="M44.5395 66.4105C51.153 72.2832 45.5016 77.8395 45.5016 77.8395C45.5016 77.8395 47.7973 72.4105 41.0108 69.0882C34.2242 65.7658 38.2472 59.2437 40.8285 56.6378C42.4017 55.0496 37.9259 60.5378 44.5395 66.4105Z" fill="#E3D5D5"/>
<path d="M36.4118 93.7637C37.5877 99.731 44.8742 103.458 44.8742 103.458C44.8742 103.458 41.1683 103.051 39.448 102.262C37.7277 101.473 36.1646 100.316 34.8479 98.8582C33.5313 97.4 32.4868 95.6689 31.7743 93.7637C31.0617 91.8584 30.6949 89.8164 30.6949 87.7542H35.6577C35.6577 87.7542 35.2359 87.7963 36.4118 93.7637Z" fill="white"/>
<path d="M26.659 118.86V124.74H27.609V128.08H26.149V126H21.679V128.08H20.219V124.74H20.769C20.9557 124.367 21.1357 123.973 21.309 123.56C21.4823 123.147 21.6423 122.703 21.789 122.23C21.9423 121.757 22.079 121.243 22.199 120.69C22.319 120.13 22.419 119.52 22.499 118.86H26.659ZM23.699 120.12C23.6523 120.467 23.5857 120.837 23.499 121.23C23.4123 121.617 23.309 122.013 23.189 122.42C23.0757 122.827 22.949 123.227 22.809 123.62C22.669 124.013 22.519 124.387 22.359 124.74H25.149V120.12H23.699Z" fill="black"/>
<path d="M35.1857 122.42C35.1857 122.973 35.1157 123.477 34.9757 123.93C34.8424 124.377 34.6357 124.763 34.3557 125.09C34.0824 125.417 33.729 125.667 33.2957 125.84C32.869 126.013 32.3657 126.1 31.7857 126.1C31.2057 126.1 30.699 126.013 30.2657 125.84C29.839 125.66 29.4857 125.41 29.2057 125.09C28.9324 124.763 28.7257 124.373 28.5857 123.92C28.4524 123.467 28.3857 122.963 28.3857 122.41C28.3857 121.67 28.5057 121.027 28.7457 120.48C28.9924 119.933 29.3657 119.51 29.8657 119.21C30.3724 118.903 31.0157 118.75 31.7957 118.75C32.569 118.75 33.2057 118.903 33.7057 119.21C34.2057 119.51 34.5757 119.937 34.8157 120.49C35.0624 121.037 35.1857 121.68 35.1857 122.42ZM29.9757 122.42C29.9757 122.92 30.039 123.35 30.1657 123.71C30.2924 124.07 30.489 124.347 30.7557 124.54C31.0224 124.733 31.3657 124.83 31.7857 124.83C32.219 124.83 32.5657 124.733 32.8257 124.54C33.0924 124.347 33.2857 124.07 33.4057 123.71C33.5324 123.35 33.5957 122.92 33.5957 122.42C33.5957 121.667 33.4557 121.077 33.1757 120.65C32.8957 120.223 32.4357 120.01 31.7957 120.01C31.369 120.01 31.0224 120.107 30.7557 120.3C30.489 120.493 30.2924 120.77 30.1657 121.13C30.039 121.49 29.9757 121.92 29.9757 122.42Z" fill="black"/>
<path d="M39.6847 126L37.9647 120.4H37.9247C37.9314 120.533 37.9414 120.733 37.9547 121C37.968 121.267 37.9814 121.553 37.9947 121.86C38.008 122.16 38.0147 122.433 38.0147 122.68V126H36.6647V118.86H38.7247L40.4147 124.32H40.4447L42.2347 118.86H44.2947V126H42.8847V122.62C42.8847 122.393 42.888 122.133 42.8947 121.84C42.908 121.547 42.918 121.27 42.9247 121.01C42.938 120.743 42.948 120.543 42.9547 120.41H42.9147L41.0747 126H39.6847Z" fill="black"/>
<path d="M50.4683 126L49.9483 124.3H47.3483L46.8283 126H45.1983L47.7183 118.83H49.5683L52.0983 126H50.4683ZM49.0683 121.37C49.035 121.257 48.9916 121.113 48.9383 120.94C48.885 120.767 48.8316 120.59 48.7783 120.41C48.725 120.23 48.6816 120.073 48.6483 119.94C48.615 120.073 48.5683 120.24 48.5083 120.44C48.455 120.633 48.4016 120.82 48.3483 121C48.3016 121.173 48.265 121.297 48.2383 121.37L47.7283 123.03H49.5883L49.0683 121.37Z" fill="black"/>
<path d="M61.9826 126H53.0026V118.86H54.5126V124.74H56.7326V118.86H58.2526V124.74H60.4726V118.86H61.9826V126Z" fill="black"/>
<path d="M69.6338 126H68.1238V122.92H65.2938V126H63.7838V118.86H65.2938V121.66H68.1238V118.86H69.6338V126Z" fill="black"/>
<path d="M73.8303 123.26L72.1603 126H70.4803L72.5103 122.86C72.317 122.78 72.1237 122.663 71.9303 122.51C71.737 122.35 71.577 122.14 71.4503 121.88C71.3237 121.613 71.2603 121.287 71.2603 120.9C71.2603 120.24 71.497 119.737 71.9703 119.39C72.4437 119.037 73.107 118.86 73.9603 118.86H76.2803V126H74.7703V123.26H73.8303ZM74.0203 120.1C73.7603 120.1 73.537 120.13 73.3503 120.19C73.1703 120.25 73.0303 120.347 72.9303 120.48C72.837 120.613 72.7903 120.79 72.7903 121.01C72.7903 121.323 72.8937 121.573 73.1003 121.76C73.3137 121.94 73.6337 122.03 74.0603 122.03H74.7703V120.1H74.0203Z" fill="black"/>
<path d="M80.4807 123.26L78.8107 126H77.1307L79.1607 122.86C78.9674 122.78 78.774 122.663 78.5807 122.51C78.3874 122.35 78.2274 122.14 78.1007 121.88C77.974 121.613 77.9107 121.287 77.9107 120.9C77.9107 120.24 78.1474 119.737 78.6207 119.39C79.094 119.037 79.7574 118.86 80.6107 118.86H82.9307V126H81.4207V123.26H80.4807ZM80.6707 120.1C80.4107 120.1 80.1874 120.13 80.0007 120.19C79.8207 120.25 79.6807 120.347 79.5807 120.48C79.4874 120.613 79.4407 120.79 79.4407 121.01C79.4407 121.323 79.544 121.573 79.7507 121.76C79.964 121.94 80.284 122.03 80.7107 122.03H81.4207V120.1H80.6707Z" fill="black"/>
<path d="M40.0617 140H38.3417L35.7517 136.38V140H34.2417V132.86H35.7517V136.32L38.3117 132.86H39.9217L37.3217 136.29L40.0617 140Z" fill="black"/>
<path d="M44.4804 137.91C44.2804 138.363 44.0671 138.757 43.8404 139.09C43.6204 139.417 43.3371 139.667 42.9904 139.84C42.6438 140.013 42.1904 140.1 41.6304 140.1C41.4571 140.1 41.2671 140.087 41.0604 140.06C40.8538 140.033 40.6638 139.997 40.4904 139.95V138.65C40.6504 138.717 40.8271 138.763 41.0204 138.79C41.2138 138.817 41.3938 138.83 41.5604 138.83C41.7804 138.83 41.9571 138.793 42.0904 138.72C42.2304 138.647 42.3404 138.547 42.4204 138.42C42.5071 138.287 42.5771 138.143 42.6304 137.99L40.1604 132.86H41.7604L43.0904 135.95C43.1238 136.017 43.1638 136.103 43.2104 136.21C43.2571 136.317 43.3038 136.427 43.3504 136.54C43.3971 136.653 43.4338 136.753 43.4604 136.84H43.5104C43.5371 136.76 43.5704 136.663 43.6104 136.55C43.6571 136.43 43.7038 136.31 43.7504 136.19C43.8038 136.063 43.8504 135.953 43.8904 135.86L45.1304 132.86H46.6904L44.4804 137.91Z" fill="black"/>
<path d="M53.3613 140H51.6313L49.9713 137.3L48.3113 140H46.6913L49.0613 136.32L46.8413 132.86H48.5113L50.0513 135.43L51.5613 132.86H53.1913L50.9513 136.4L53.3613 140Z" fill="black"/>
<path d="M60.1112 140H58.6012V136.92H55.7712V140H54.2612V132.86H55.7712V135.66H58.6012V132.86H60.1112V140Z" fill="black"/>
<path d="M64.3077 137.26L62.6377 140H60.9577L62.9877 136.86C62.7944 136.78 62.601 136.663 62.4077 136.51C62.2144 136.35 62.0544 136.14 61.9277 135.88C61.801 135.613 61.7377 135.287 61.7377 134.9C61.7377 134.24 61.9744 133.737 62.4477 133.39C62.921 133.037 63.5844 132.86 64.4377 132.86H66.7577V140H65.2477V137.26H64.3077ZM64.4977 134.1C64.2377 134.1 64.0144 134.13 63.8277 134.19C63.6477 134.25 63.5077 134.347 63.4077 134.48C63.3144 134.613 63.2677 134.79 63.2677 135.01C63.2677 135.323 63.371 135.573 63.5777 135.76C63.791 135.94 64.111 136.03 64.5377 136.03H65.2477V134.1H64.4977Z" fill="black"/>
</svg>
